<svg width="26" height="26" viewBox="0 0 26 26" fill="none" xmlns="http://www.w3.org/2000/svg">
<g clip-path="url(#clip0_148_1548)">
<line x1="-3.18064" y1="32.0577" x2="45.5486" y2="-6.39635" stroke="white" stroke-width="0.54752"/>
<line x1="-3.18064" y1="49.4699" x2="45.5486" y2="11.0158" stroke="white" stroke-width="0.54752"/>
<line x1="-3.18064" y1="0.135228" x2="45.5486" y2="-38.3188" stroke="white" stroke-width="0.54752"/>
<line x1="-3.18064" y1="14.6452" x2="45.5486" y2="-23.8088" stroke="white" stroke-width="0.54752"/>
<line x1="-3.18064" y1="58.1759" x2="45.5486" y2="19.7219" stroke="white" stroke-width="0.54752"/>
<line x1="-3.18064" y1="23.3514" x2="45.5486" y2="-15.1026" stroke="white" stroke-width="0.54752"/>
<line x1="-3.18064" y1="40.7638" x2="45.5486" y2="2.30973" stroke="white" stroke-width="0.54752"/>
<line x1="-3.18064" y1="5.93927" x2="45.5486" y2="-32.5148" stroke="white" stroke-width="0.54752"/>
<line x1="-3.18064" y1="34.9596" x2="45.5486" y2="-3.49447" stroke="white" stroke-width="0.54752"/>
<line x1="-3.18064" y1="52.3717" x2="45.5486" y2="13.9177" stroke="white" stroke-width="0.54752"/>
<line x1="-3.18064" y1="17.5475" x2="45.5486" y2="-20.9065" stroke="white" stroke-width="0.54752"/>
<line x1="-3.18064" y1="61.078" x2="45.5486" y2="22.6239" stroke="white" stroke-width="0.54752"/>
<line x1="-3.18064" y1="26.2535" x2="45.5486" y2="-12.2006" stroke="white" stroke-width="0.54752"/>
<line x1="-3.18064" y1="43.6658" x2="45.5486" y2="5.21176" stroke="white" stroke-width="0.54752"/>
<line x1="-3.18064" y1="8.8413" x2="45.5486" y2="-29.6127" stroke="white" stroke-width="0.54752"/>
<line x1="-3.18064" y1="29.1555" x2="45.5486" y2="-9.29853" stroke="white" stroke-width="0.54752"/>
<line x1="-3.18064" y1="46.5678" x2="45.5486" y2="8.11379" stroke="white" stroke-width="0.54752"/>
<line x1="-3.18064" y1="11.7433" x2="45.5486" y2="-26.7107" stroke="white" stroke-width="0.54752"/>
<line x1="-3.18064" y1="55.2741" x2="45.5486" y2="16.82" stroke="white" stroke-width="0.54752"/>
<line x1="-3.18064" y1="20.4494" x2="45.5486" y2="-18.0046" stroke="white" stroke-width="0.54752"/>
<line x1="-3.18064" y1="37.8617" x2="45.5486" y2="-0.592291" stroke="white" stroke-width="0.54752"/>
<line x1="-3.18064" y1="3.03724" x2="45.5486" y2="-35.4168" stroke="white" stroke-width="0.54752"/>
<rect x="-1.91667" y="25.4595" width="93.0783" height="14.5093" transform="rotate(-90 -1.91667 25.4595)" fill="white"/>
<rect x="-1.91667" y="25.4595" width="93.0783" height="14.5093" transform="rotate(-90 -1.91667 25.4595)" stroke="white" stroke-width="0.547519"/>
</g>
<defs>
<clipPath id="clip0_148_1548">
<rect x="1.10091e-06" y="25.1859" width="25.1859" height="25.1859" rx="12.593" transform="rotate(-90 1.10091e-06 25.1859)" fill="white"/>
</clipPath>
</defs>
</svg>
